<?xml version="1.0" encoding="UTF-8"?>
<svg version="1.1" viewBox="0 0 876 873" xmlns="http://www.w3.org/2000/svg">
 <path d="m0 436.5v-436.5h876v873h-876v-436.5z" fill="#FFF5F3"/>
 <path d="m261.75 871.63c-4.6121-1.7206-9.9607-5.7157-12.56-9.3817-4.9482-6.9791-8.1104-23.47-6.4369-33.57 1.3329-8.044 42.869-112.82 47.248-119.18 3.8737-5.6302 11.013-11.685 18.475-15.669 4.7822-2.5528 7.4798-3.2765 13.516-3.626 9.1856-0.53174 15.168 1.8252 20.528 8.087 6.7042 7.8323 10.656 24.25 8.6191 35.811-0.9754 5.5375-39.2 103.97-44.405 114.35-2.9918 5.9655-12.398 15.255-20.052 19.802-5.9474 3.5338-7.7357 4.0975-14 4.4135-4.553 0.22967-8.555-0.15006-10.934-1.0374zm345.1-2.9664c-10.268-3.8398-22.571-14.026-27.077-22.419-1.4023-2.6118-12.494-27.99-24.647-56.395-17.972-42.005-22.286-52.973-23.105-58.75-2.6627-18.774 5.7187-37.89 18.456-42.094 6.3238-2.087 16.979-0.85186 24.188 2.804 7.7518 3.931 17.151 12.564 20.53 18.857 1.4265 2.6562 12.6 28.217 24.831 56.802 24.644 57.599 25.266 59.563 23.154 73.15-2.8671 18.442-11.622 28.219-25.998 29.034-4.107 0.23285-8.0817-0.14752-10.331-0.98865zm-184.34-181.25c-38.404-3.8139-63.787-10.913-94.878-26.537-24.766-12.445-45.167-27.34-66.198-48.329-20.062-20.023-32.81-36.761-45.295-59.472-20.469-37.236-30.129-74.612-30.129-116.57 0-30.92 4.8493-57.481 15.559-85.219 26.624-68.955 83.033-124.95 151.84-150.72 33.186-12.43 70.696-17.684 103.82-14.543 61.945 5.8742 116.3 32.462 160.78 78.641 34.117 35.424 56.646 77.527 66.533 124.34 4.5218 21.409 5.814 53.789 3.0347 76.038-5.5821 44.686-22.956 85.801-52.382 123.96-3.6049 4.675-13.109 15.055-21.12 23.066-8.0114 8.0113-18.391 17.516-23.066 21.12-37.36 28.808-77.476 46.094-121.5 52.353-10.081 1.4333-39.589 2.6095-47 1.8735zm-394-47.819c-10.195-2.5195-17.468-7.6235-21.113-14.818-2.2442-4.4286-2.5378-6.0973-2.233-12.688 0.48826-10.556 3.942-17.359 13.766-27.117l7.5798-7.5284 54.767-23.28c38.237-16.254 56.648-23.586 61-24.295 12.233-1.9917 27.658 1.6721 35.277 8.3794 6.9831 6.1468 8.7265 10.397 8.2664 20.151-0.50715 10.752-3.8775 17.633-13.311 27.177l-7 7.0821-53.5 22.839c-29.425 12.561-55.736 23.438-58.468 24.171-6.0771 1.6291-18.287 1.593-25.032-0.074zm801-6.331c-3.5779-0.52128-110.65-43.625-115.05-46.316-5.4767-3.3485-15.405-14.616-18.189-20.642-3.4479-7.4642-4.2172-17.506-1.8216-23.779 2.0043-5.2482 8.8997-11.884 15.118-14.55 6.5393-2.8031 16.753-4.3194 24.862-3.6912 6.2932 0.48752 13.217 3.0259 62.083 22.76 30.25 12.216 56.869 23.495 59.154 25.065 5.8322 4.0065 13.542 12.947 16.916 19.616 7.0828 13.999 2.3603 30.678-10.552 37.265-7.3424 3.7458-22.481 5.735-32.518 4.2727zm-693.45-284.99c-4.9972-0.93773-111.69-44.611-115.66-47.345-5.5035-3.7865-12.594-11.792-16.516-18.647-4.3529-7.6081-5.1411-17.618-1.9543-24.822 2.7074-6.1204 4.3109-7.9262 10.693-12.041 6.7698-4.3652 18.967-6.9108 29.036-6.0597 6.4401 0.54438 13.41 3.0972 62.054 22.727 30.14 12.162 56.221 22.981 57.958 24.042 5.168 3.1556 14.901 14.28 17.955 20.521 3.6144 7.3876 4.4286 17.339 1.9495 23.831-1.994 5.2213-8.8917 11.881-15.031 14.513-7.9436 3.405-21.846 4.9021-30.479 3.2821zm581.71-5.3013c-12.202-2.0546-21.698-7.9153-25.663-15.839-5.9108-11.812-1.6929-26.527 11.38-39.702l7.019-7.0739 53.5-22.846c29.425-12.565 55.75-23.475 58.5-24.243 7.1327-1.9927 22.333-1.1494 29.645 1.6446 8.5531 3.2684 13.248 7.1517 16.376 13.545 2.4236 4.9537 2.6847 6.4303 2.267 12.823-0.67933 10.397-4.2468 17.362-13.705 26.756l-7.5827 7.5317-54.809 23.28c-60.926 25.878-62.875 26.49-76.927 24.123zm-410.76-158.9c-9.7608-2.9877-22.659-13.298-27.189-21.733-1.4265-2.6562-12.6-28.217-24.831-56.802-24.658-57.631-25.25-59.503-23.165-73.283 4.7775-31.581 31.859-38.784 55.748-14.827l7.0627 7.0829 23.755 55.488c25.859 60.405 26.14 61.272 24.517 75.833-1.4221 12.76-7.7323 23.258-16.397 27.279-4.1742 1.9367-14.631 2.453-19.5 0.96272zm233.23-3.1159c-8.3724-4.2662-14.178-13.985-16.394-27.447-2.0404-12.392-1.318-14.81 21.817-73 11.808-29.7 22.532-55.8 23.832-58 3.4666-5.8685 12.098-13.851 19.516-18.05 14.704-8.3225 31.617-4.1804 38.386 9.4009 4.3576 8.7436 6.4368 22.276 4.7893 31.171-1.6636 8.9814-43.581 113.4-47.866 119.24-4.2182 5.7463-11.549 11.802-18.75 15.49-7.2515 3.7136-19.275 4.2815-25.329 1.1964z" fill="#fef500"/>
</svg>
